<mxfile host="app.diagrams.net" agent="Mozilla/5.0 (X11; Ubuntu; Linux x86_64; rv:135.0) Gecko/20100101 Firefox/135.0" version="26.0.16">
  <diagram name="Page-1" id="SFM-1LCW11wMgiVxfuNA">
    <mxGraphModel dx="1434" dy="790" grid="1" gridSize="10" guides="1" tooltips="1" connect="1" arrows="1" fold="1" page="1" pageScale="1" pageWidth="850" pageHeight="1100" math="0" shadow="0">
      <root>
        <mxCell id="0" />
        <mxCell id="1" parent="0" />
        <mxCell id="jzCX_laI9AOKzLh_iHjM-1" value="&lt;font style=&quot;font-size: 20px;&quot;&gt;Ciudadano&lt;/font&gt;" style="rounded=0;whiteSpace=wrap;html=1;" vertex="1" parent="1">
          <mxGeometry x="182.5" y="210" width="160" height="90" as="geometry" />
        </mxCell>
        <mxCell id="jzCX_laI9AOKzLh_iHjM-2" value="&lt;font style=&quot;font-size: 20px;&quot;&gt;Solicitud&lt;/font&gt;" style="rounded=0;whiteSpace=wrap;html=1;" vertex="1" parent="1">
          <mxGeometry x="630" y="210" width="160" height="90" as="geometry" />
        </mxCell>
        <mxCell id="jzCX_laI9AOKzLh_iHjM-3" value="&lt;font style=&quot;font-size: 20px;&quot;&gt;Visa&lt;/font&gt;" style="rounded=0;whiteSpace=wrap;html=1;" vertex="1" parent="1">
          <mxGeometry x="182.5" y="550" width="160" height="90" as="geometry" />
        </mxCell>
        <mxCell id="jzCX_laI9AOKzLh_iHjM-4" value="CURP&lt;br&gt; (primary key)" style="ellipse;whiteSpace=wrap;html=1;rotation=-25;dashed=1;dashPattern=8 8;" vertex="1" parent="1">
          <mxGeometry x="30" y="50" width="120" height="70" as="geometry" />
        </mxCell>
        <mxCell id="jzCX_laI9AOKzLh_iHjM-5" value="Nombre" style="ellipse;whiteSpace=wrap;html=1;rotation=0;" vertex="1" parent="1">
          <mxGeometry x="352.5" y="160" width="70" height="50" as="geometry" />
        </mxCell>
        <mxCell id="jzCX_laI9AOKzLh_iHjM-6" value="Apellido Materno" style="ellipse;whiteSpace=wrap;html=1;rotation=0;" vertex="1" parent="1">
          <mxGeometry x="392.5" y="95" width="80" height="50" as="geometry" />
        </mxCell>
        <mxCell id="jzCX_laI9AOKzLh_iHjM-7" value="Fecha de&lt;br&gt; Nacimiento" style="ellipse;whiteSpace=wrap;html=1;rotation=0;" vertex="1" parent="1">
          <mxGeometry x="242.5" y="140" width="85" height="50" as="geometry" />
        </mxCell>
        <mxCell id="jzCX_laI9AOKzLh_iHjM-8" value="Edad" style="ellipse;whiteSpace=wrap;html=1;rotation=0;" vertex="1" parent="1">
          <mxGeometry x="172.5" y="145" width="60" height="40" as="geometry" />
        </mxCell>
        <mxCell id="jzCX_laI9AOKzLh_iHjM-10" value="" style="ellipse;whiteSpace=wrap;html=1;" vertex="1" parent="1">
          <mxGeometry x="82.5" y="245" width="75" height="45" as="geometry" />
        </mxCell>
        <mxCell id="jzCX_laI9AOKzLh_iHjM-9" value="E-mail" style="ellipse;whiteSpace=wrap;html=1;rotation=0;" vertex="1" parent="1">
          <mxGeometry x="90" y="248.75" width="60" height="37.5" as="geometry" />
        </mxCell>
        <mxCell id="jzCX_laI9AOKzLh_iHjM-11" value="" style="endArrow=none;html=1;rounded=0;exitX=1;exitY=0.5;exitDx=0;exitDy=0;entryX=0;entryY=0.5;entryDx=0;entryDy=0;" edge="1" parent="1" source="jzCX_laI9AOKzLh_iHjM-10" target="jzCX_laI9AOKzLh_iHjM-1">
          <mxGeometry width="50" height="50" relative="1" as="geometry">
            <mxPoint x="322.5" y="350" as="sourcePoint" />
            <mxPoint x="372.5" y="300" as="targetPoint" />
          </mxGeometry>
        </mxCell>
        <mxCell id="jzCX_laI9AOKzLh_iHjM-12" value="" style="endArrow=none;html=1;rounded=0;exitX=0.5;exitY=1;exitDx=0;exitDy=0;entryX=1;entryY=0.5;entryDx=0;entryDy=0;" edge="1" parent="1" source="jzCX_laI9AOKzLh_iHjM-5" target="jzCX_laI9AOKzLh_iHjM-1">
          <mxGeometry width="50" height="50" relative="1" as="geometry">
            <mxPoint x="158.5" y="345" as="sourcePoint" />
            <mxPoint x="192.5" y="310" as="targetPoint" />
          </mxGeometry>
        </mxCell>
        <mxCell id="jzCX_laI9AOKzLh_iHjM-13" value="" style="endArrow=none;html=1;rounded=0;exitX=0.25;exitY=0;exitDx=0;exitDy=0;entryX=0.5;entryY=1;entryDx=0;entryDy=0;" edge="1" parent="1" source="jzCX_laI9AOKzLh_iHjM-1" target="jzCX_laI9AOKzLh_iHjM-8">
          <mxGeometry width="50" height="50" relative="1" as="geometry">
            <mxPoint x="168.5" y="355" as="sourcePoint" />
            <mxPoint x="202.5" y="320" as="targetPoint" />
          </mxGeometry>
        </mxCell>
        <mxCell id="jzCX_laI9AOKzLh_iHjM-14" value="" style="endArrow=none;html=1;rounded=0;exitX=0.5;exitY=0;exitDx=0;exitDy=0;entryX=0.5;entryY=1;entryDx=0;entryDy=0;" edge="1" parent="1" source="jzCX_laI9AOKzLh_iHjM-1" target="jzCX_laI9AOKzLh_iHjM-7">
          <mxGeometry width="50" height="50" relative="1" as="geometry">
            <mxPoint x="232.5" y="220" as="sourcePoint" />
            <mxPoint x="172.5" y="180" as="targetPoint" />
          </mxGeometry>
        </mxCell>
        <mxCell id="jzCX_laI9AOKzLh_iHjM-15" value="" style="endArrow=none;html=1;rounded=0;exitX=0;exitY=0;exitDx=0;exitDy=0;" edge="1" parent="1" source="jzCX_laI9AOKzLh_iHjM-1" target="jzCX_laI9AOKzLh_iHjM-4">
          <mxGeometry width="50" height="50" relative="1" as="geometry">
            <mxPoint x="362.5" y="380" as="sourcePoint" />
            <mxPoint x="412.5" y="330" as="targetPoint" />
          </mxGeometry>
        </mxCell>
        <mxCell id="jzCX_laI9AOKzLh_iHjM-16" value="" style="endArrow=none;html=1;rounded=0;entryX=0.5;entryY=1;entryDx=0;entryDy=0;exitX=0.5;exitY=0;exitDx=0;exitDy=0;" edge="1" parent="1" source="jzCX_laI9AOKzLh_iHjM-5" target="jzCX_laI9AOKzLh_iHjM-6">
          <mxGeometry width="50" height="50" relative="1" as="geometry">
            <mxPoint x="232.5" y="140" as="sourcePoint" />
            <mxPoint x="282.5" y="90" as="targetPoint" />
          </mxGeometry>
        </mxCell>
        <mxCell id="jzCX_laI9AOKzLh_iHjM-17" value="Apellido Paterno" style="ellipse;whiteSpace=wrap;html=1;rotation=0;" vertex="1" parent="1">
          <mxGeometry x="302.5" y="90" width="80" height="50" as="geometry" />
        </mxCell>
        <mxCell id="jzCX_laI9AOKzLh_iHjM-18" value="" style="endArrow=none;html=1;rounded=0;exitX=0.5;exitY=0;exitDx=0;exitDy=0;entryX=0.5;entryY=1;entryDx=0;entryDy=0;" edge="1" parent="1" source="jzCX_laI9AOKzLh_iHjM-5" target="jzCX_laI9AOKzLh_iHjM-17">
          <mxGeometry width="50" height="50" relative="1" as="geometry">
            <mxPoint x="212.5" y="210" as="sourcePoint" />
            <mxPoint x="352.5" y="130" as="targetPoint" />
          </mxGeometry>
        </mxCell>
        <mxCell id="jzCX_laI9AOKzLh_iHjM-21" value="" style="ellipse;whiteSpace=wrap;html=1;" vertex="1" parent="1">
          <mxGeometry x="60" y="170" width="92.5" height="57.5" as="geometry" />
        </mxCell>
        <mxCell id="jzCX_laI9AOKzLh_iHjM-20" value="# de cÃ©dula" style="ellipse;whiteSpace=wrap;html=1;rotation=0;" vertex="1" parent="1">
          <mxGeometry x="71.25" y="173.75" width="70" height="50" as="geometry" />
        </mxCell>
        <mxCell id="jzCX_laI9AOKzLh_iHjM-22" value="" style="endArrow=none;html=1;rounded=0;exitX=1;exitY=1;exitDx=0;exitDy=0;entryX=0;entryY=0.25;entryDx=0;entryDy=0;" edge="1" parent="1" source="jzCX_laI9AOKzLh_iHjM-21" target="jzCX_laI9AOKzLh_iHjM-1">
          <mxGeometry width="50" height="50" relative="1" as="geometry">
            <mxPoint x="167.5" y="278" as="sourcePoint" />
            <mxPoint x="192.5" y="265" as="targetPoint" />
          </mxGeometry>
        </mxCell>
        <mxCell id="jzCX_laI9AOKzLh_iHjM-23" value="&lt;font style=&quot;font-size: 15px;&quot;&gt;Renueva&lt;/font&gt;" style="rhombus;whiteSpace=wrap;html=1;" vertex="1" parent="1">
          <mxGeometry x="218.75" y="420" width="87.5" height="90" as="geometry" />
        </mxCell>
        <mxCell id="jzCX_laI9AOKzLh_iHjM-24" value="&lt;font style=&quot;font-size: 19px;&quot;&gt;Realiza&lt;/font&gt;" style="rhombus;whiteSpace=wrap;html=1;" vertex="1" parent="1">
          <mxGeometry x="425" y="200" width="112.5" height="110" as="geometry" />
        </mxCell>
        <mxCell id="jzCX_laI9AOKzLh_iHjM-27" value="" style="endArrow=none;html=1;rounded=0;entryX=0;entryY=0.5;entryDx=0;entryDy=0;exitX=1;exitY=0.5;exitDx=0;exitDy=0;" edge="1" parent="1" source="jzCX_laI9AOKzLh_iHjM-1" target="jzCX_laI9AOKzLh_iHjM-24">
          <mxGeometry width="50" height="50" relative="1" as="geometry">
            <mxPoint x="340" y="430" as="sourcePoint" />
            <mxPoint x="390" y="380" as="targetPoint" />
          </mxGeometry>
        </mxCell>
        <mxCell id="jzCX_laI9AOKzLh_iHjM-29" value="# de solicitud (Primary Key)" style="ellipse;whiteSpace=wrap;html=1;rotation=0;" vertex="1" parent="1">
          <mxGeometry x="530" y="130" width="90" height="50" as="geometry" />
        </mxCell>
        <mxCell id="jzCX_laI9AOKzLh_iHjM-30" value="" style="endArrow=none;html=1;rounded=0;entryX=0.5;entryY=1;entryDx=0;entryDy=0;exitX=0.25;exitY=0;exitDx=0;exitDy=0;" edge="1" parent="1" target="jzCX_laI9AOKzLh_iHjM-29" source="jzCX_laI9AOKzLh_iHjM-2">
          <mxGeometry width="50" height="50" relative="1" as="geometry">
            <mxPoint x="635" y="155" as="sourcePoint" />
            <mxPoint x="529.5" y="85" as="targetPoint" />
          </mxGeometry>
        </mxCell>
        <mxCell id="jzCX_laI9AOKzLh_iHjM-32" value="Fecha de solicitud" style="ellipse;whiteSpace=wrap;html=1;rotation=0;" vertex="1" parent="1">
          <mxGeometry x="670" y="150" width="90" height="50" as="geometry" />
        </mxCell>
        <mxCell id="jzCX_laI9AOKzLh_iHjM-33" value="" style="endArrow=none;html=1;rounded=0;entryX=0.5;entryY=1;entryDx=0;entryDy=0;exitX=0.5;exitY=0;exitDx=0;exitDy=0;" edge="1" parent="1" source="jzCX_laI9AOKzLh_iHjM-2" target="jzCX_laI9AOKzLh_iHjM-32">
          <mxGeometry width="50" height="50" relative="1" as="geometry">
            <mxPoint x="680" y="220" as="sourcePoint" />
            <mxPoint x="585" y="190" as="targetPoint" />
          </mxGeometry>
        </mxCell>
        <mxCell id="jzCX_laI9AOKzLh_iHjM-34" value="Observaciones" style="ellipse;whiteSpace=wrap;html=1;rotation=0;" vertex="1" parent="1">
          <mxGeometry x="750" y="120" width="90" height="50" as="geometry" />
        </mxCell>
        <mxCell id="jzCX_laI9AOKzLh_iHjM-35" value="" style="endArrow=none;html=1;rounded=0;entryX=0.5;entryY=1;entryDx=0;entryDy=0;exitX=0.75;exitY=0;exitDx=0;exitDy=0;" edge="1" parent="1" source="jzCX_laI9AOKzLh_iHjM-2" target="jzCX_laI9AOKzLh_iHjM-34">
          <mxGeometry width="50" height="50" relative="1" as="geometry">
            <mxPoint x="720" y="220" as="sourcePoint" />
            <mxPoint x="695" y="184" as="targetPoint" />
          </mxGeometry>
        </mxCell>
        <mxCell id="jzCX_laI9AOKzLh_iHjM-36" value="Resultado" style="ellipse;whiteSpace=wrap;html=1;rotation=0;" vertex="1" parent="1">
          <mxGeometry x="620" y="100" width="90" height="50" as="geometry" />
        </mxCell>
        <mxCell id="jzCX_laI9AOKzLh_iHjM-37" value="" style="endArrow=none;html=1;rounded=0;entryX=0.5;entryY=1;entryDx=0;entryDy=0;exitX=0.25;exitY=0;exitDx=0;exitDy=0;" edge="1" parent="1" source="jzCX_laI9AOKzLh_iHjM-2" target="jzCX_laI9AOKzLh_iHjM-36">
          <mxGeometry width="50" height="50" relative="1" as="geometry">
            <mxPoint x="660" y="210" as="sourcePoint" />
            <mxPoint x="585" y="190" as="targetPoint" />
          </mxGeometry>
        </mxCell>
        <mxCell id="jzCX_laI9AOKzLh_iHjM-40" value="# de visa (Primary Key)" style="ellipse;whiteSpace=wrap;html=1;rotation=0;" vertex="1" parent="1">
          <mxGeometry x="30" y="480" width="90" height="50" as="geometry" />
        </mxCell>
        <mxCell id="jzCX_laI9AOKzLh_iHjM-41" value="Fecha de Vigencia (Inicio)" style="ellipse;whiteSpace=wrap;html=1;rotation=0;" vertex="1" parent="1">
          <mxGeometry x="56.25" y="565" width="93.75" height="60" as="geometry" />
        </mxCell>
        <mxCell id="jzCX_laI9AOKzLh_iHjM-42" value="Fecha de Vigencia (Fin)" style="ellipse;whiteSpace=wrap;html=1;rotation=0;" vertex="1" parent="1">
          <mxGeometry x="82.5" y="650" width="93.75" height="60" as="geometry" />
        </mxCell>
        <mxCell id="jzCX_laI9AOKzLh_iHjM-43" value="" style="endArrow=none;html=1;rounded=0;exitX=0.789;exitY=0.92;exitDx=0;exitDy=0;entryX=0;entryY=0.25;entryDx=0;entryDy=0;exitPerimeter=0;" edge="1" parent="1" source="jzCX_laI9AOKzLh_iHjM-40" target="jzCX_laI9AOKzLh_iHjM-3">
          <mxGeometry width="50" height="50" relative="1" as="geometry">
            <mxPoint x="330" y="450" as="sourcePoint" />
            <mxPoint x="380" y="400" as="targetPoint" />
          </mxGeometry>
        </mxCell>
        <mxCell id="jzCX_laI9AOKzLh_iHjM-44" value="" style="endArrow=none;html=1;rounded=0;exitX=1;exitY=0.5;exitDx=0;exitDy=0;entryX=0;entryY=0.5;entryDx=0;entryDy=0;" edge="1" parent="1" source="jzCX_laI9AOKzLh_iHjM-41" target="jzCX_laI9AOKzLh_iHjM-3">
          <mxGeometry width="50" height="50" relative="1" as="geometry">
            <mxPoint x="175" y="525" as="sourcePoint" />
            <mxPoint x="233" y="560" as="targetPoint" />
          </mxGeometry>
        </mxCell>
        <mxCell id="jzCX_laI9AOKzLh_iHjM-45" value="" style="endArrow=none;html=1;rounded=0;exitX=1;exitY=0;exitDx=0;exitDy=0;entryX=0;entryY=1;entryDx=0;entryDy=0;" edge="1" parent="1" source="jzCX_laI9AOKzLh_iHjM-42" target="jzCX_laI9AOKzLh_iHjM-3">
          <mxGeometry width="50" height="50" relative="1" as="geometry">
            <mxPoint x="160" y="605" as="sourcePoint" />
            <mxPoint x="193" y="605" as="targetPoint" />
          </mxGeometry>
        </mxCell>
        <mxCell id="jzCX_laI9AOKzLh_iHjM-46" value="Periodo de Vigencia" style="ellipse;whiteSpace=wrap;html=1;rotation=0;dashed=1;dashPattern=8 8;" vertex="1" parent="1">
          <mxGeometry x="200" y="670" width="93.75" height="60" as="geometry" />
        </mxCell>
        <mxCell id="jzCX_laI9AOKzLh_iHjM-47" value="" style="endArrow=none;html=1;rounded=0;entryX=0.5;entryY=1;entryDx=0;entryDy=0;" edge="1" parent="1" source="jzCX_laI9AOKzLh_iHjM-46" target="jzCX_laI9AOKzLh_iHjM-3">
          <mxGeometry width="50" height="50" relative="1" as="geometry">
            <mxPoint x="172" y="669" as="sourcePoint" />
            <mxPoint x="193" y="650" as="targetPoint" />
          </mxGeometry>
        </mxCell>
        <mxCell id="jzCX_laI9AOKzLh_iHjM-48" value="&lt;font style=&quot;font-size: 21px;&quot;&gt;(0,1)&lt;/font&gt;" style="text;html=1;align=center;verticalAlign=middle;whiteSpace=wrap;rounded=0;" vertex="1" parent="1">
          <mxGeometry x="342.5" y="260" width="60" height="30" as="geometry" />
        </mxCell>
        <mxCell id="jzCX_laI9AOKzLh_iHjM-52" value="" style="endArrow=classic;html=1;rounded=0;exitX=1;exitY=0.5;exitDx=0;exitDy=0;entryX=0;entryY=0.5;entryDx=0;entryDy=0;" edge="1" parent="1" source="jzCX_laI9AOKzLh_iHjM-24" target="jzCX_laI9AOKzLh_iHjM-2">
          <mxGeometry width="50" height="50" relative="1" as="geometry">
            <mxPoint x="560" y="350" as="sourcePoint" />
            <mxPoint x="610" y="300" as="targetPoint" />
          </mxGeometry>
        </mxCell>
        <mxCell id="jzCX_laI9AOKzLh_iHjM-53" value="&lt;font style=&quot;font-size: 21px;&quot;&gt;(1,M)&lt;/font&gt;" style="text;html=1;align=center;verticalAlign=middle;whiteSpace=wrap;rounded=0;" vertex="1" parent="1">
          <mxGeometry x="560" y="260" width="60" height="30" as="geometry" />
        </mxCell>
        <mxCell id="jzCX_laI9AOKzLh_iHjM-54" value="&lt;font style=&quot;font-size: 21px;&quot;&gt;(1,M)&lt;/font&gt;" style="text;html=1;align=center;verticalAlign=middle;whiteSpace=wrap;rounded=0;" vertex="1" parent="1">
          <mxGeometry x="451.25" y="320" width="60" height="30" as="geometry" />
        </mxCell>
        <mxCell id="jzCX_laI9AOKzLh_iHjM-55" value="&lt;font style=&quot;font-size: 21px;&quot;&gt;(1,1)&lt;/font&gt;" style="text;html=1;align=center;verticalAlign=middle;whiteSpace=wrap;rounded=0;" vertex="1" parent="1">
          <mxGeometry x="302.5" y="420" width="60" height="30" as="geometry" />
        </mxCell>
        <mxCell id="jzCX_laI9AOKzLh_iHjM-56" value="&lt;font style=&quot;font-size: 21px;&quot;&gt;(1,1)&lt;/font&gt;" style="text;html=1;align=center;verticalAlign=middle;whiteSpace=wrap;rounded=0;" vertex="1" parent="1">
          <mxGeometry x="352.5" y="560" width="60" height="30" as="geometry" />
        </mxCell>
        <mxCell id="jzCX_laI9AOKzLh_iHjM-57" value="&lt;font style=&quot;font-size: 21px;&quot;&gt;Genera&lt;/font&gt;" style="rhombus;whiteSpace=wrap;html=1;" vertex="1" parent="1">
          <mxGeometry x="653.75" y="360" width="112.5" height="110" as="geometry" />
        </mxCell>
        <mxCell id="jzCX_laI9AOKzLh_iHjM-58" value="&lt;font style=&quot;font-size: 21px;&quot;&gt;(1,1)&lt;/font&gt;" style="text;html=1;align=center;verticalAlign=middle;whiteSpace=wrap;rounded=0;" vertex="1" parent="1">
          <mxGeometry x="730" y="310" width="60" height="30" as="geometry" />
        </mxCell>
        <mxCell id="jzCX_laI9AOKzLh_iHjM-59" value="" style="endArrow=none;html=1;rounded=0;entryX=0.5;entryY=0;entryDx=0;entryDy=0;exitX=0.5;exitY=1;exitDx=0;exitDy=0;" edge="1" parent="1" source="jzCX_laI9AOKzLh_iHjM-2" target="jzCX_laI9AOKzLh_iHjM-57">
          <mxGeometry width="50" height="50" relative="1" as="geometry">
            <mxPoint x="640" y="360" as="sourcePoint" />
            <mxPoint x="640" y="430" as="targetPoint" />
          </mxGeometry>
        </mxCell>
        <mxCell id="jzCX_laI9AOKzLh_iHjM-62" value="" style="endArrow=none;html=1;rounded=0;exitX=1;exitY=0.5;exitDx=0;exitDy=0;" edge="1" parent="1" source="jzCX_laI9AOKzLh_iHjM-3">
          <mxGeometry width="50" height="50" relative="1" as="geometry">
            <mxPoint x="460" y="590" as="sourcePoint" />
            <mxPoint x="710" y="595" as="targetPoint" />
          </mxGeometry>
        </mxCell>
        <mxCell id="jzCX_laI9AOKzLh_iHjM-63" value="" style="endArrow=none;html=1;rounded=0;entryX=0.5;entryY=1;entryDx=0;entryDy=0;" edge="1" parent="1" target="jzCX_laI9AOKzLh_iHjM-57">
          <mxGeometry width="50" height="50" relative="1" as="geometry">
            <mxPoint x="710" y="600" as="sourcePoint" />
            <mxPoint x="730" y="515" as="targetPoint" />
          </mxGeometry>
        </mxCell>
        <mxCell id="jzCX_laI9AOKzLh_iHjM-64" value="&lt;font style=&quot;font-size: 21px;&quot;&gt;(1,1)&lt;/font&gt;" style="text;html=1;align=center;verticalAlign=middle;whiteSpace=wrap;rounded=0;" vertex="1" parent="1">
          <mxGeometry x="580" y="400" width="60" height="30" as="geometry" />
        </mxCell>
        <mxCell id="jzCX_laI9AOKzLh_iHjM-65" value="" style="endArrow=none;html=1;rounded=0;entryX=0;entryY=0.5;entryDx=0;entryDy=0;exitX=0.25;exitY=0;exitDx=0;exitDy=0;" edge="1" parent="1" source="jzCX_laI9AOKzLh_iHjM-3" target="jzCX_laI9AOKzLh_iHjM-23">
          <mxGeometry width="50" height="50" relative="1" as="geometry">
            <mxPoint x="177.5" y="510" as="sourcePoint" />
            <mxPoint x="227.5" y="460" as="targetPoint" />
          </mxGeometry>
        </mxCell>
        <mxCell id="jzCX_laI9AOKzLh_iHjM-66" value="" style="endArrow=none;html=1;rounded=0;entryX=1;entryY=0.5;entryDx=0;entryDy=0;exitX=0.75;exitY=0;exitDx=0;exitDy=0;" edge="1" parent="1" source="jzCX_laI9AOKzLh_iHjM-3" target="jzCX_laI9AOKzLh_iHjM-23">
          <mxGeometry width="50" height="50" relative="1" as="geometry">
            <mxPoint x="233" y="560" as="sourcePoint" />
            <mxPoint x="229" y="445" as="targetPoint" />
          </mxGeometry>
        </mxCell>
        <mxCell id="jzCX_laI9AOKzLh_iHjM-67" value="&lt;font style=&quot;font-size: 21px;&quot;&gt;(0,1)&lt;/font&gt;" style="text;html=1;align=center;verticalAlign=middle;whiteSpace=wrap;rounded=0;" vertex="1" parent="1">
          <mxGeometry x="160" y="420" width="60" height="30" as="geometry" />
        </mxCell>
        <mxCell id="jzCX_laI9AOKzLh_iHjM-68" value="&lt;font style=&quot;font-size: 21px;&quot;&gt;(1,1)&lt;/font&gt;" style="text;html=1;align=center;verticalAlign=middle;whiteSpace=wrap;rounded=0;" vertex="1" parent="1">
          <mxGeometry x="232.5" y="510" width="60" height="30" as="geometry" />
        </mxCell>
      </root>
    </mxGraphModel>
  </diagram>
</mxfile>
